<svg width="14" height="14" viewBox="0 0 14 14" fill="none" xmlns="http://www.w3.org/2000/svg">
<path fill-rule="evenodd" clip-rule="evenodd" d="M4.28146 0.678835C4.24341 0.293427 3.92441 0 3.54349 0H1.24169C0.832067 0 0.5 0.337659 0.5 0.754183C0.5 1.17071 0.832067 1.50837 1.24169 1.50837H2.87253L3.12137 4.02825C3.12127 4.04587 3.12209 4.06356 3.12384 4.08126L3.60075 8.9028C3.60158 8.91118 3.60262 8.91955 3.60386 8.92787C3.65503 9.27101 3.82644 9.58378 4.08651 9.80855C4.34577 10.0326 4.67575 10.1542 5.01594 10.1511H10.8025C11.1062 10.164 11.4061 10.0772 11.6577 9.90328C11.9132 9.72659 12.1049 9.4697 12.2034 9.17186L12.2039 9.17028L13.4285 5.42539L13.4289 5.42421C13.499 5.2078 13.5177 4.97755 13.4831 4.75239C13.4488 4.52802 13.3628 4.31512 13.2321 4.13106C13.0953 3.93581 12.9125 3.77842 12.7007 3.67318C12.4918 3.56942 12.2609 3.51964 12.0286 3.52816H4.56282L4.28146 0.678835ZM11.7786 12.8155C11.7786 12.1614 11.2572 11.6312 10.6139 11.6312C9.97056 11.6312 9.44907 12.1614 9.44907 12.8155C9.44907 13.4697 9.97056 14 10.6139 14C11.2572 14 11.7786 13.4697 11.7786 12.8155ZM5.52488 11.6312C6.16819 11.6312 6.6897 12.1614 6.6897 12.8155C6.6897 13.4697 6.16819 14 5.52488 14C4.88157 14 4.36007 13.4697 4.36007 12.8155C4.36007 12.1614 4.88157 11.6312 5.52488 11.6312ZM6.59916 5.3269C6.94052 5.3269 7.21724 5.60828 7.21724 5.95539V7.96654C7.21724 8.31365 6.94052 8.59503 6.59916 8.59503C6.2578 8.59503 5.98108 8.31365 5.98108 7.96654V5.95539C5.98108 5.60828 6.2578 5.3269 6.59916 5.3269ZM10.6785 5.95539C10.6785 5.60828 10.4018 5.3269 10.0604 5.3269C9.71903 5.3269 9.44231 5.60828 9.44231 5.95539V7.96654C9.44231 8.31365 9.71903 8.59503 10.0604 8.59503C10.4018 8.59503 10.6785 8.31365 10.6785 7.96654V5.95539Z" fill="white"/>
</svg>
