<svg width="14" height="14" viewBox="0 0 14 14" fill="none" xmlns="http://www.w3.org/2000/svg">
<path fill-rule="evenodd" clip-rule="evenodd" d="M0 7C0 3.13401 3.13401 0 7 0C10.866 0 14 3.13401 14 7C14 10.866 10.866 14 7 14C3.13401 14 0 10.866 0 7ZM7 2.54545C4.53983 2.54545 2.54545 4.53983 2.54545 7C2.54545 7.35145 2.83036 7.63636 3.18182 7.63636C3.53327 7.63636 3.81818 7.35145 3.81818 7C3.81818 5.24274 5.24274 3.81818 7 3.81818C7.35145 3.81818 7.63636 3.53327 7.63636 3.18182C7.63636 2.83036 7.35145 2.54545 7 2.54545ZM11.4545 7C11.4545 6.64855 11.1696 6.36364 10.8182 6.36364C10.4667 6.36364 10.1818 6.64855 10.1818 7C10.1818 8.75726 8.75726 10.1818 7 10.1818C6.64855 10.1818 6.36364 10.4667 6.36364 10.8182C6.36364 11.1696 6.64855 11.4545 7 11.4545C9.46017 11.4545 11.4545 9.46017 11.4545 7ZM5.09091 7C5.09091 5.94565 5.94565 5.09091 7 5.09091C8.05435 5.09091 8.90909 5.94565 8.90909 7C8.90909 8.05435 8.05435 8.90909 7 8.90909C5.94565 8.90909 5.09091 8.05435 5.09091 7Z" fill="white"/>
</svg>
