<svg width="14" height="14" fill="none" xmlns="http://www.w3.org/2000/svg"><path fill-rule="evenodd" clip-rule="evenodd" d="M9.895.235A.5.5 0 0 1 10.4.007l2.572.428a.5.5 0 0 1 .41.576l-.428 2.571a.5.5 0 0 1-.9.209l-.694-.971-3.574 2.285a.75.75 0 0 1-.974-.145L4.821 2.63 1.093 4.545a.75.75 0 1 1-.686-1.334l4.255-2.186a.75.75 0 0 1 .913.18L7.53 3.489l2.96-1.891L9.912.79a.5.5 0 0 1-.017-.556Zm-6.546 4.91L.447 6.806a.75.75 0 0 0-.378.65v5.75c0 .415.336.75.75.75h2.53v-8.81Zm1.25 8.81h3.668V7.144l-1.649.824L4.97 5.083a.747.747 0 0 0-.37-.323v9.196Zm7.72 0H9.517V6.519l2.467-1.233a.75.75 0 0 1 1.085.67v7.25a.75.75 0 0 1-.75.75Z" fill="#fff"/></svg>