<svg width="14" height="14" fill="none" xmlns="http://www.w3.org/2000/svg"><path fill-rule="evenodd" clip-rule="evenodd" d="M3.5 0a1 1 0 0 1 1 1v1h5V1a1 1 0 0 1 2 0v1h1A1.5 1.5 0 0 1 14 3.5V5H0V3.5A1.5 1.5 0 0 1 1.5 2h1V1a1 1 0 0 1 1-1ZM0 6.25h14v6.25a1.5 1.5 0 0 1-1.5 1.5h-11A1.5 1.5 0 0 1 0 12.5V6.25Zm2.714 3.114C2.32 9.364 2 9.058 2 8.682 2 8.305 2.32 8 2.714 8h.953c.394 0 .714.305.714.682 0 .376-.32.682-.714.682h-.953Zm3.096-.682c0 .376.32.682.714.682h.952c.395 0 .714-.306.714-.682 0-.377-.32-.682-.714-.682h-.952c-.395 0-.714.305-.714.682Zm3.809 0c0 .376.32.682.714.682h.953c.394 0 .714-.306.714-.682 0-.377-.32-.682-.714-.682h-.953c-.394 0-.714.305-.714.682ZM2 11.318c0 .377.32.682.714.682h.953c.394 0 .714-.305.714-.682 0-.376-.32-.682-.714-.682h-.953c-.394 0-.714.306-.714.682Zm3.81 0c0 .377.32.682.714.682h.952c.395 0 .714-.305.714-.682 0-.376-.32-.682-.714-.682h-.952c-.395 0-.714.306-.714.682Zm3.809 0c0 .377.32.682.714.682h.953c.394 0 .714-.305.714-.682 0-.376-.32-.682-.714-.682h-.953c-.394 0-.714.306-.714.682Z" fill="#fff"/></svg>